<svg aria-roledescription="er" role="graphics-document document" viewBox="0 0 851.406494140625 530" style="max-width: 851.406px; background-color: white;" xmlns:xlink="http://www.w3.org/1999/xlink" xmlns="http://www.w3.org/2000/svg" width="100%" id="my-svg"><style>#my-svg{font-family:"trebuchet ms",verdana,arial,sans-serif;font-size:16px;fill:#000000;}#my-svg .error-icon{fill:#552222;}#my-svg .error-text{fill:#552222;stroke:#552222;}#my-svg .edge-thickness-normal{stroke-width:2px;}#my-svg .edge-thickness-thick{stroke-width:3.5px;}#my-svg .edge-pattern-solid{stroke-dasharray:0;}#my-svg .edge-pattern-dashed{stroke-dasharray:3;}#my-svg .edge-pattern-dotted{stroke-dasharray:2;}#my-svg .marker{fill:#000000;stroke:#000000;}#my-svg .marker.cross{stroke:#000000;}#my-svg svg{font-family:"trebuchet ms",verdana,arial,sans-serif;font-size:16px;}#my-svg .entityBox{fill:#cde498;stroke:#13540c;}#my-svg .attributeBoxOdd{fill:#ffffff;stroke:#13540c;}#my-svg .attributeBoxEven{fill:#f2f2f2;stroke:#13540c;}#my-svg .relationshipLabelBox{fill:hsl(78.1578947368, 58.4615384615%, 84.5098039216%);opacity:0.7;background-color:hsl(78.1578947368, 58.4615384615%, 84.5098039216%);}#my-svg .relationshipLabelBox rect{opacity:0.5;}#my-svg .relationshipLine{stroke:#000000;}#my-svg .entityTitleText{text-anchor:middle;font-size:18px;fill:#000000;}#my-svg #MD_PARENT_START{fill:#f5f5f5!important;stroke:#000000!important;stroke-width:1;}#my-svg #MD_PARENT_END{fill:#f5f5f5!important;stroke:#000000!important;stroke-width:1;}#my-svg :root{--mermaid-font-family:"trebuchet ms",verdana,arial,sans-serif;}</style><g/><defs><marker orient="auto" markerHeight="240" markerWidth="190" refY="7" refX="0" id="MD_PARENT_START"><path d="M 18,7 L9,13 L1,7 L9,1 Z"/></marker></defs><defs><marker orient="auto" markerHeight="28" markerWidth="20" refY="7" refX="19" id="MD_PARENT_END"><path d="M 18,7 L9,13 L1,7 L9,1 Z"/></marker></defs><defs><marker orient="auto" markerHeight="18" markerWidth="18" refY="9" refX="0" id="ONLY_ONE_START"><path d="M9,0 L9,18 M15,0 L15,18" fill="none" stroke="gray"/></marker></defs><defs><marker orient="auto" markerHeight="18" markerWidth="18" refY="9" refX="18" id="ONLY_ONE_END"><path d="M3,0 L3,18 M9,0 L9,18" fill="none" stroke="gray"/></marker></defs><defs><marker orient="auto" markerHeight="18" markerWidth="30" refY="9" refX="0" id="ZERO_OR_ONE_START"><circle r="6" cy="9" cx="21" fill="white" stroke="gray"/><path d="M9,0 L9,18" fill="none" stroke="gray"/></marker></defs><defs><marker orient="auto" markerHeight="18" markerWidth="30" refY="9" refX="30" id="ZERO_OR_ONE_END"><circle r="6" cy="9" cx="9" fill="white" stroke="gray"/><path d="M21,0 L21,18" fill="none" stroke="gray"/></marker></defs><defs><marker orient="auto" markerHeight="36" markerWidth="45" refY="18" refX="18" id="ONE_OR_MORE_START"><path d="M0,18 Q 18,0 36,18 Q 18,36 0,18 M42,9 L42,27" fill="none" stroke="gray"/></marker></defs><defs><marker orient="auto" markerHeight="36" markerWidth="45" refY="18" refX="27" id="ONE_OR_MORE_END"><path d="M3,9 L3,27 M9,18 Q27,0 45,18 Q27,36 9,18" fill="none" stroke="gray"/></marker></defs><defs><marker orient="auto" markerHeight="36" markerWidth="57" refY="18" refX="18" id="ZERO_OR_MORE_START"><circle r="6" cy="18" cx="48" fill="white" stroke="gray"/><path d="M0,18 Q18,0 36,18 Q18,36 0,18" fill="none" stroke="gray"/></marker></defs><defs><marker orient="auto" markerHeight="36" markerWidth="57" refY="18" refX="39" id="ZERO_OR_MORE_END"><circle r="6" cy="18" cx="9" fill="white" stroke="gray"/><path d="M21,18 Q39,0 57,18 Q39,36 21,18" fill="none" stroke="gray"/></marker></defs><path style="stroke: gray; fill: none;" marker-start="url(#ZERO_OR_ONE_START)" marker-end="url(#ONLY_ONE_END)" d="M427.282,132.508L368.272,151.257C309.263,170.005,191.243,207.503,132.233,245.251C73.223,283,73.223,321,73.223,340L73.223,359" class="er relationshipLine"/><path style="stroke: gray; fill: none;" marker-start="url(#ZERO_OR_ONE_START)" marker-end="url(#ONLY_ONE_END)" d="M427.282,157.738L404.496,172.282C381.709,186.825,336.137,215.913,313.35,249.456C290.564,283,290.564,321,290.564,340L290.564,359" class="er relationshipLine"/><path style="stroke: gray; fill: none;" marker-start="url(#ZERO_OR_ONE_START)" marker-end="url(#ONLY_ONE_END)" d="M505.993,195L505.993,203.333C505.993,211.667,505.993,228.333,505.993,255.667C505.993,283,505.993,321,505.993,340L505.993,359" class="er relationshipLine"/><path style="stroke: gray; fill: none;" marker-start="url(#ZERO_OR_ONE_START)" marker-end="url(#ONLY_ONE_END)" d="M584.704,171.471L599.783,183.726C614.861,195.981,645.018,220.49,663.757,241.079C682.495,261.667,689.816,278.333,693.477,286.667L697.137,295" class="er relationshipLine"/><path style="stroke: gray; fill: none;" marker-start="url(#ZERO_OR_MORE_START)" marker-end="url(#ZERO_OR_MORE_END)" d="M778.483,295L781.129,286.667C783.774,278.333,789.065,261.667,756.769,236.672C724.472,211.677,654.588,178.354,619.646,161.693L584.704,145.032" class="er relationshipLine"/><g transform="translate(20,359 )" id="entity-Age-038f73d8-601c-5d30-8ee4-f53e61891abe"><rect height="87" width="106.4466552734375" y="0" x="0" class="er entityBox"/><text style="dominant-baseline: middle; text-anchor: middle; font-size: 12px;" transform="translate(53.22332763671875,12)" y="0" x="0" id="text-entity-Age-038f73d8-601c-5d30-8ee4-f53e61891abe" class="er entityLabel">Age</text><rect height="21" width="53.22332763671875" y="24" x="0" class="er attributeBoxOdd"/><text style="dominant-baseline: middle; font-size: 10.2px;" transform="translate(5,34.5)" y="0" x="0" id="text-entity-Age-038f73d8-601c-5d30-8ee4-f53e61891abe-attr-1-type" class="er entityLabel">FILHOTE</text><rect height="21" width="53.22332763671875" y="24" x="53.22332763671875" class="er attributeBoxOdd"/><text style="dominant-baseline: middle; font-size: 10.2px;" transform="translate(58.22332763671875,34.5)" y="0" x="0" id="text-entity-Age-038f73d8-601c-5d30-8ee4-f53e61891abe-attr-1-name" class="er entityLabel">FILHOTE</text><rect height="21" width="53.22332763671875" y="45" x="0" class="er attributeBoxEven"/><text style="dominant-baseline: middle; font-size: 10.2px;" transform="translate(5,55.5)" y="0" x="0" id="text-entity-Age-038f73d8-601c-5d30-8ee4-f53e61891abe-attr-2-type" class="er entityLabel">ADULTO</text><rect height="21" width="53.22332763671875" y="45" x="53.22332763671875" class="er attributeBoxEven"/><text style="dominant-baseline: middle; font-size: 10.2px;" transform="translate(58.22332763671875,55.5)" y="0" x="0" id="text-entity-Age-038f73d8-601c-5d30-8ee4-f53e61891abe-attr-2-name" class="er entityLabel">ADULTO</text><rect height="21" width="53.22332763671875" y="66" x="0" class="er attributeBoxOdd"/><text style="dominant-baseline: middle; font-size: 10.2px;" transform="translate(5,76.5)" y="0" x="0" id="text-entity-Age-038f73d8-601c-5d30-8ee4-f53e61891abe-attr-3-type" class="er entityLabel">SENIOR</text><rect height="21" width="53.22332763671875" y="66" x="53.22332763671875" class="er attributeBoxOdd"/><text style="dominant-baseline: middle; font-size: 10.2px;" transform="translate(58.22332763671875,76.5)" y="0" x="0" id="text-entity-Age-038f73d8-601c-5d30-8ee4-f53e61891abe-attr-3-name" class="er entityLabel">SENIOR</text></g><g transform="translate(226.4466552734375,359 )" id="entity-EnergyLevel-6fde254a-f97a-5730-abe8-3cce97a06cc2"><rect height="87" width="128.23406982421875" y="0" x="0" class="er entityBox"/><text style="dominant-baseline: middle; text-anchor: middle; font-size: 12px;" transform="translate(64.11703491210938,12)" y="0" x="0" id="text-entity-EnergyLevel-6fde254a-f97a-5730-abe8-3cce97a06cc2" class="er entityLabel">EnergyLevel</text><rect height="21" width="64.11703491210938" y="24" x="0" class="er attributeBoxOdd"/><text style="dominant-baseline: middle; font-size: 10.2px;" transform="translate(5,34.5)" y="0" x="0" id="text-entity-EnergyLevel-6fde254a-f97a-5730-abe8-3cce97a06cc2-attr-1-type" class="er entityLabel">CALM</text><rect height="21" width="64.11703491210938" y="24" x="64.11703491210938" class="er attributeBoxOdd"/><text style="dominant-baseline: middle; font-size: 10.2px;" transform="translate(69.11703491210938,34.5)" y="0" x="0" id="text-entity-EnergyLevel-6fde254a-f97a-5730-abe8-3cce97a06cc2-attr-1-name" class="er entityLabel">CALM</text><rect height="21" width="64.11703491210938" y="45" x="0" class="er attributeBoxEven"/><text style="dominant-baseline: middle; font-size: 10.2px;" transform="translate(5,55.5)" y="0" x="0" id="text-entity-EnergyLevel-6fde254a-f97a-5730-abe8-3cce97a06cc2-attr-2-type" class="er entityLabel">PEACEFUL</text><rect height="21" width="64.11703491210938" y="45" x="64.11703491210938" class="er attributeBoxEven"/><text style="dominant-baseline: middle; font-size: 10.2px;" transform="translate(69.11703491210938,55.5)" y="0" x="0" id="text-entity-EnergyLevel-6fde254a-f97a-5730-abe8-3cce97a06cc2-attr-2-name" class="er entityLabel">PEACEFUL</text><rect height="21" width="64.11703491210938" y="66" x="0" class="er attributeBoxOdd"/><text style="dominant-baseline: middle; font-size: 10.2px;" transform="translate(5,76.5)" y="0" x="0" id="text-entity-EnergyLevel-6fde254a-f97a-5730-abe8-3cce97a06cc2-attr-3-type" class="er entityLabel">FUSSY</text><rect height="21" width="64.11703491210938" y="66" x="64.11703491210938" class="er attributeBoxOdd"/><text style="dominant-baseline: middle; font-size: 10.2px;" transform="translate(69.11703491210938,76.5)" y="0" x="0" id="text-entity-EnergyLevel-6fde254a-f97a-5730-abe8-3cce97a06cc2-attr-3-name" class="er entityLabel">FUSSY</text></g><g transform="translate(454.68072509765625,359 )" id="entity-Size-c0ba90fa-1efb-5f55-8fa3-b6fac4a7af2e"><rect height="87" width="102.625" y="0" x="0" class="er entityBox"/><text style="dominant-baseline: middle; text-anchor: middle; font-size: 12px;" transform="translate(51.3125,12)" y="0" x="0" id="text-entity-Size-c0ba90fa-1efb-5f55-8fa3-b6fac4a7af2e" class="er entityLabel">Size</text><rect height="21" width="51.3125" y="24" x="0" class="er attributeBoxOdd"/><text style="dominant-baseline: middle; font-size: 10.2px;" transform="translate(5,34.5)" y="0" x="0" id="text-entity-Size-c0ba90fa-1efb-5f55-8fa3-b6fac4a7af2e-attr-1-type" class="er entityLabel">SMALL</text><rect height="21" width="51.3125" y="24" x="51.3125" class="er attributeBoxOdd"/><text style="dominant-baseline: middle; font-size: 10.2px;" transform="translate(56.3125,34.5)" y="0" x="0" id="text-entity-Size-c0ba90fa-1efb-5f55-8fa3-b6fac4a7af2e-attr-1-name" class="er entityLabel">SMALL</text><rect height="21" width="51.3125" y="45" x="0" class="er attributeBoxEven"/><text style="dominant-baseline: middle; font-size: 10.2px;" transform="translate(5,55.5)" y="0" x="0" id="text-entity-Size-c0ba90fa-1efb-5f55-8fa3-b6fac4a7af2e-attr-2-type" class="er entityLabel">MEDIUM</text><rect height="21" width="51.3125" y="45" x="51.3125" class="er attributeBoxEven"/><text style="dominant-baseline: middle; font-size: 10.2px;" transform="translate(56.3125,55.5)" y="0" x="0" id="text-entity-Size-c0ba90fa-1efb-5f55-8fa3-b6fac4a7af2e-attr-2-name" class="er entityLabel">MEDIUM</text><rect height="21" width="51.3125" y="66" x="0" class="er attributeBoxOdd"/><text style="dominant-baseline: middle; font-size: 10.2px;" transform="translate(5,76.5)" y="0" x="0" id="text-entity-Size-c0ba90fa-1efb-5f55-8fa3-b6fac4a7af2e-attr-3-type" class="er entityLabel">BIG</text><rect height="21" width="51.3125" y="66" x="51.3125" class="er attributeBoxOdd"/><text style="dominant-baseline: middle; font-size: 10.2px;" transform="translate(56.3125,76.5)" y="0" x="0" id="text-entity-Size-c0ba90fa-1efb-5f55-8fa3-b6fac4a7af2e-attr-3-name" class="er entityLabel">BIG</text></g><g transform="translate(427.28228759765625,20 )" id="entity-pets-c8ddf567-7858-5c2f-8d5c-09924015b056"><rect height="175" width="157.421875" y="0" x="0" class="er entityBox"/><text style="dominant-baseline: middle; text-anchor: middle; font-size: 12px;" transform="translate(78.7109375,12)" y="0" x="0" id="text-entity-pets-c8ddf567-7858-5c2f-8d5c-09924015b056" class="er entityLabel">pets</text><rect height="23" width="66.640625" y="24" x="0" class="er attributeBoxOdd"/><text style="dominant-baseline: middle; font-size: 10.2px;" transform="translate(5,35.5)" y="0" x="0" id="text-entity-pets-c8ddf567-7858-5c2f-8d5c-09924015b056-attr-1-type" class="er entityLabel">String</text><rect height="23" width="67.78125" y="24" x="66.640625" class="er attributeBoxOdd"/><text style="dominant-baseline: middle; font-size: 10.2px;" transform="translate(71.640625,35.5)" y="0" x="0" id="text-entity-pets-c8ddf567-7858-5c2f-8d5c-09924015b056-attr-1-name" class="er entityLabel">id</text><rect height="23" width="23" y="24" x="134.421875" class="er attributeBoxOdd"/><text style="dominant-baseline: middle; font-size: 10.2px;" transform="translate(139.421875,35.5)" y="0" x="0" id="text-entity-pets-c8ddf567-7858-5c2f-8d5c-09924015b056-attr-1-comment" class="er entityLabel">🗝️</text><rect height="21" width="66.640625" y="47" x="0" class="er attributeBoxEven"/><text style="dominant-baseline: middle; font-size: 10.2px;" transform="translate(5,57.5)" y="0" x="0" id="text-entity-pets-c8ddf567-7858-5c2f-8d5c-09924015b056-attr-2-type" class="er entityLabel">String</text><rect height="21" width="67.78125" y="47" x="66.640625" class="er attributeBoxEven"/><text style="dominant-baseline: middle; font-size: 10.2px;" transform="translate(71.640625,57.5)" y="0" x="0" id="text-entity-pets-c8ddf567-7858-5c2f-8d5c-09924015b056-attr-2-name" class="er entityLabel">name</text><rect height="21" width="23" y="47" x="134.421875" class="er attributeBoxEven"/><text style="dominant-baseline: middle; font-size: 10.2px;" transform="translate(139.421875,57.5)" y="0" x="0" id="text-entity-pets-c8ddf567-7858-5c2f-8d5c-09924015b056-attr-2-comment" class="er entityLabel"/><rect height="23" width="66.640625" y="68" x="0" class="er attributeBoxOdd"/><text style="dominant-baseline: middle; font-size: 10.2px;" transform="translate(5,79.5)" y="0" x="0" id="text-entity-pets-c8ddf567-7858-5c2f-8d5c-09924015b056-attr-3-type" class="er entityLabel">String</text><rect height="23" width="67.78125" y="68" x="66.640625" class="er attributeBoxOdd"/><text style="dominant-baseline: middle; font-size: 10.2px;" transform="translate(71.640625,79.5)" y="0" x="0" id="text-entity-pets-c8ddf567-7858-5c2f-8d5c-09924015b056-attr-3-name" class="er entityLabel">description</text><rect height="23" width="23" y="68" x="134.421875" class="er attributeBoxOdd"/><text style="dominant-baseline: middle; font-size: 10.2px;" transform="translate(139.421875,79.5)" y="0" x="0" id="text-entity-pets-c8ddf567-7858-5c2f-8d5c-09924015b056-attr-3-comment" class="er entityLabel">❓</text><rect height="21" width="66.640625" y="91" x="0" class="er attributeBoxEven"/><text style="dominant-baseline: middle; font-size: 10.2px;" transform="translate(5,101.5)" y="0" x="0" id="text-entity-pets-c8ddf567-7858-5c2f-8d5c-09924015b056-attr-4-type" class="er entityLabel">Age</text><rect height="21" width="67.78125" y="91" x="66.640625" class="er attributeBoxEven"/><text style="dominant-baseline: middle; font-size: 10.2px;" transform="translate(71.640625,101.5)" y="0" x="0" id="text-entity-pets-c8ddf567-7858-5c2f-8d5c-09924015b056-attr-4-name" class="er entityLabel">age</text><rect height="21" width="23" y="91" x="134.421875" class="er attributeBoxEven"/><text style="dominant-baseline: middle; font-size: 10.2px;" transform="translate(139.421875,101.5)" y="0" x="0" id="text-entity-pets-c8ddf567-7858-5c2f-8d5c-09924015b056-attr-4-comment" class="er entityLabel"/><rect height="21" width="66.640625" y="112" x="0" class="er attributeBoxOdd"/><text style="dominant-baseline: middle; font-size: 10.2px;" transform="translate(5,122.5)" y="0" x="0" id="text-entity-pets-c8ddf567-7858-5c2f-8d5c-09924015b056-attr-5-type" class="er entityLabel">EnergyLevel</text><rect height="21" width="67.78125" y="112" x="66.640625" class="er attributeBoxOdd"/><text style="dominant-baseline: middle; font-size: 10.2px;" transform="translate(71.640625,122.5)" y="0" x="0" id="text-entity-pets-c8ddf567-7858-5c2f-8d5c-09924015b056-attr-5-name" class="er entityLabel">energy_level</text><rect height="21" width="23" y="112" x="134.421875" class="er attributeBoxOdd"/><text style="dominant-baseline: middle; font-size: 10.2px;" transform="translate(139.421875,122.5)" y="0" x="0" id="text-entity-pets-c8ddf567-7858-5c2f-8d5c-09924015b056-attr-5-comment" class="er entityLabel"/><rect height="21" width="66.640625" y="133" x="0" class="er attributeBoxEven"/><text style="dominant-baseline: middle; font-size: 10.2px;" transform="translate(5,143.5)" y="0" x="0" id="text-entity-pets-c8ddf567-7858-5c2f-8d5c-09924015b056-attr-6-type" class="er entityLabel">Size</text><rect height="21" width="67.78125" y="133" x="66.640625" class="er attributeBoxEven"/><text style="dominant-baseline: middle; font-size: 10.2px;" transform="translate(71.640625,143.5)" y="0" x="0" id="text-entity-pets-c8ddf567-7858-5c2f-8d5c-09924015b056-attr-6-name" class="er entityLabel">size</text><rect height="21" width="23" y="133" x="134.421875" class="er attributeBoxEven"/><text style="dominant-baseline: middle; font-size: 10.2px;" transform="translate(139.421875,143.5)" y="0" x="0" id="text-entity-pets-c8ddf567-7858-5c2f-8d5c-09924015b056-attr-6-comment" class="er entityLabel"/><rect height="21" width="66.640625" y="154" x="0" class="er attributeBoxOdd"/><text style="dominant-baseline: middle; font-size: 10.2px;" transform="translate(5,164.5)" y="0" x="0" id="text-entity-pets-c8ddf567-7858-5c2f-8d5c-09924015b056-attr-7-type" class="er entityLabel">DateTime</text><rect height="21" width="67.78125" y="154" x="66.640625" class="er attributeBoxOdd"/><text style="dominant-baseline: middle; font-size: 10.2px;" transform="translate(71.640625,164.5)" y="0" x="0" id="text-entity-pets-c8ddf567-7858-5c2f-8d5c-09924015b056-attr-7-name" class="er entityLabel">created_at</text><rect height="21" width="23" y="154" x="134.421875" class="er attributeBoxOdd"/><text style="dominant-baseline: middle; font-size: 10.2px;" transform="translate(139.421875,164.5)" y="0" x="0" id="text-entity-pets-c8ddf567-7858-5c2f-8d5c-09924015b056-attr-7-comment" class="er entityLabel"/></g><g transform="translate(657.3057250976562,295 )" id="entity-organizations-258d3fad-6db4-59dd-b3e6-44cc4246c92e"><rect height="215" width="174.10076904296875" y="0" x="0" class="er entityBox"/><text style="dominant-baseline: middle; text-anchor: middle; font-size: 12px;" transform="translate(87.05038452148438,12)" y="0" x="0" id="text-entity-organizations-258d3fad-6db4-59dd-b3e6-44cc4246c92e" class="er entityLabel">organizations</text><rect height="23" width="54.113128662109375" y="24" x="0" class="er attributeBoxOdd"/><text style="dominant-baseline: middle; font-size: 10.2px;" transform="translate(5,35.5)" y="0" x="0" id="text-entity-organizations-258d3fad-6db4-59dd-b3e6-44cc4246c92e-attr-1-type" class="er entityLabel">String</text><rect height="23" width="96.98764038085938" y="24" x="54.113128662109375" class="er attributeBoxOdd"/><text style="dominant-baseline: middle; font-size: 10.2px;" transform="translate(59.113128662109375,35.5)" y="0" x="0" id="text-entity-organizations-258d3fad-6db4-59dd-b3e6-44cc4246c92e-attr-1-name" class="er entityLabel">id</text><rect height="23" width="23" y="24" x="151.10076904296875" class="er attributeBoxOdd"/><text style="dominant-baseline: middle; font-size: 10.2px;" transform="translate(156.10076904296875,35.5)" y="0" x="0" id="text-entity-organizations-258d3fad-6db4-59dd-b3e6-44cc4246c92e-attr-1-comment" class="er entityLabel">🗝️</text><rect height="21" width="54.113128662109375" y="47" x="0" class="er attributeBoxEven"/><text style="dominant-baseline: middle; font-size: 10.2px;" transform="translate(5,57.5)" y="0" x="0" id="text-entity-organizations-258d3fad-6db4-59dd-b3e6-44cc4246c92e-attr-2-type" class="er entityLabel">String</text><rect height="21" width="96.98764038085938" y="47" x="54.113128662109375" class="er attributeBoxEven"/><text style="dominant-baseline: middle; font-size: 10.2px;" transform="translate(59.113128662109375,57.5)" y="0" x="0" id="text-entity-organizations-258d3fad-6db4-59dd-b3e6-44cc4246c92e-attr-2-name" class="er entityLabel">name</text><rect height="21" width="23" y="47" x="151.10076904296875" class="er attributeBoxEven"/><text style="dominant-baseline: middle; font-size: 10.2px;" transform="translate(156.10076904296875,57.5)" y="0" x="0" id="text-entity-organizations-258d3fad-6db4-59dd-b3e6-44cc4246c92e-attr-2-comment" class="er entityLabel"/><rect height="21" width="54.113128662109375" y="68" x="0" class="er attributeBoxOdd"/><text style="dominant-baseline: middle; font-size: 10.2px;" transform="translate(5,78.5)" y="0" x="0" id="text-entity-organizations-258d3fad-6db4-59dd-b3e6-44cc4246c92e-attr-3-type" class="er entityLabel">String</text><rect height="21" width="96.98764038085938" y="68" x="54.113128662109375" class="er attributeBoxOdd"/><text style="dominant-baseline: middle; font-size: 10.2px;" transform="translate(59.113128662109375,78.5)" y="0" x="0" id="text-entity-organizations-258d3fad-6db4-59dd-b3e6-44cc4246c92e-attr-3-name" class="er entityLabel">responsable_name</text><rect height="21" width="23" y="68" x="151.10076904296875" class="er attributeBoxOdd"/><text style="dominant-baseline: middle; font-size: 10.2px;" transform="translate(156.10076904296875,78.5)" y="0" x="0" id="text-entity-organizations-258d3fad-6db4-59dd-b3e6-44cc4246c92e-attr-3-comment" class="er entityLabel"/><rect height="21" width="54.113128662109375" y="89" x="0" class="er attributeBoxEven"/><text style="dominant-baseline: middle; font-size: 10.2px;" transform="translate(5,99.5)" y="0" x="0" id="text-entity-organizations-258d3fad-6db4-59dd-b3e6-44cc4246c92e-attr-4-type" class="er entityLabel">String</text><rect height="21" width="96.98764038085938" y="89" x="54.113128662109375" class="er attributeBoxEven"/><text style="dominant-baseline: middle; font-size: 10.2px;" transform="translate(59.113128662109375,99.5)" y="0" x="0" id="text-entity-organizations-258d3fad-6db4-59dd-b3e6-44cc4246c92e-attr-4-name" class="er entityLabel">email</text><rect height="21" width="23" y="89" x="151.10076904296875" class="er attributeBoxEven"/><text style="dominant-baseline: middle; font-size: 10.2px;" transform="translate(156.10076904296875,99.5)" y="0" x="0" id="text-entity-organizations-258d3fad-6db4-59dd-b3e6-44cc4246c92e-attr-4-comment" class="er entityLabel"/><rect height="21" width="54.113128662109375" y="110" x="0" class="er attributeBoxOdd"/><text style="dominant-baseline: middle; font-size: 10.2px;" transform="translate(5,120.5)" y="0" x="0" id="text-entity-organizations-258d3fad-6db4-59dd-b3e6-44cc4246c92e-attr-5-type" class="er entityLabel">String</text><rect height="21" width="96.98764038085938" y="110" x="54.113128662109375" class="er attributeBoxOdd"/><text style="dominant-baseline: middle; font-size: 10.2px;" transform="translate(59.113128662109375,120.5)" y="0" x="0" id="text-entity-organizations-258d3fad-6db4-59dd-b3e6-44cc4246c92e-attr-5-name" class="er entityLabel">password_hash</text><rect height="21" width="23" y="110" x="151.10076904296875" class="er attributeBoxOdd"/><text style="dominant-baseline: middle; font-size: 10.2px;" transform="translate(156.10076904296875,120.5)" y="0" x="0" id="text-entity-organizations-258d3fad-6db4-59dd-b3e6-44cc4246c92e-attr-5-comment" class="er entityLabel"/><rect height="21" width="54.113128662109375" y="131" x="0" class="er attributeBoxEven"/><text style="dominant-baseline: middle; font-size: 10.2px;" transform="translate(5,141.5)" y="0" x="0" id="text-entity-organizations-258d3fad-6db4-59dd-b3e6-44cc4246c92e-attr-6-type" class="er entityLabel">String</text><rect height="21" width="96.98764038085938" y="131" x="54.113128662109375" class="er attributeBoxEven"/><text style="dominant-baseline: middle; font-size: 10.2px;" transform="translate(59.113128662109375,141.5)" y="0" x="0" id="text-entity-organizations-258d3fad-6db4-59dd-b3e6-44cc4246c92e-attr-6-name" class="er entityLabel">address</text><rect height="21" width="23" y="131" x="151.10076904296875" class="er attributeBoxEven"/><text style="dominant-baseline: middle; font-size: 10.2px;" transform="translate(156.10076904296875,141.5)" y="0" x="0" id="text-entity-organizations-258d3fad-6db4-59dd-b3e6-44cc4246c92e-attr-6-comment" class="er entityLabel"/><rect height="21" width="54.113128662109375" y="152" x="0" class="er attributeBoxOdd"/><text style="dominant-baseline: middle; font-size: 10.2px;" transform="translate(5,162.5)" y="0" x="0" id="text-entity-organizations-258d3fad-6db4-59dd-b3e6-44cc4246c92e-attr-7-type" class="er entityLabel">String</text><rect height="21" width="96.98764038085938" y="152" x="54.113128662109375" class="er attributeBoxOdd"/><text style="dominant-baseline: middle; font-size: 10.2px;" transform="translate(59.113128662109375,162.5)" y="0" x="0" id="text-entity-organizations-258d3fad-6db4-59dd-b3e6-44cc4246c92e-attr-7-name" class="er entityLabel">city</text><rect height="21" width="23" y="152" x="151.10076904296875" class="er attributeBoxOdd"/><text style="dominant-baseline: middle; font-size: 10.2px;" transform="translate(156.10076904296875,162.5)" y="0" x="0" id="text-entity-organizations-258d3fad-6db4-59dd-b3e6-44cc4246c92e-attr-7-comment" class="er entityLabel"/><rect height="21" width="54.113128662109375" y="173" x="0" class="er attributeBoxEven"/><text style="dominant-baseline: middle; font-size: 10.2px;" transform="translate(5,183.5)" y="0" x="0" id="text-entity-organizations-258d3fad-6db4-59dd-b3e6-44cc4246c92e-attr-8-type" class="er entityLabel">String</text><rect height="21" width="96.98764038085938" y="173" x="54.113128662109375" class="er attributeBoxEven"/><text style="dominant-baseline: middle; font-size: 10.2px;" transform="translate(59.113128662109375,183.5)" y="0" x="0" id="text-entity-organizations-258d3fad-6db4-59dd-b3e6-44cc4246c92e-attr-8-name" class="er entityLabel">postal_code</text><rect height="21" width="23" y="173" x="151.10076904296875" class="er attributeBoxEven"/><text style="dominant-baseline: middle; font-size: 10.2px;" transform="translate(156.10076904296875,183.5)" y="0" x="0" id="text-entity-organizations-258d3fad-6db4-59dd-b3e6-44cc4246c92e-attr-8-comment" class="er entityLabel"/><rect height="21" width="54.113128662109375" y="194" x="0" class="er attributeBoxOdd"/><text style="dominant-baseline: middle; font-size: 10.2px;" transform="translate(5,204.5)" y="0" x="0" id="text-entity-organizations-258d3fad-6db4-59dd-b3e6-44cc4246c92e-attr-9-type" class="er entityLabel">DateTime</text><rect height="21" width="96.98764038085938" y="194" x="54.113128662109375" class="er attributeBoxOdd"/><text style="dominant-baseline: middle; font-size: 10.2px;" transform="translate(59.113128662109375,204.5)" y="0" x="0" id="text-entity-organizations-258d3fad-6db4-59dd-b3e6-44cc4246c92e-attr-9-name" class="er entityLabel">created_at</text><rect height="21" width="23" y="194" x="151.10076904296875" class="er attributeBoxOdd"/><text style="dominant-baseline: middle; font-size: 10.2px;" transform="translate(156.10076904296875,204.5)" y="0" x="0" id="text-entity-organizations-258d3fad-6db4-59dd-b3e6-44cc4246c92e-attr-9-comment" class="er entityLabel"/></g><rect height="14" width="53.69921875" y="198.61622619628906" x="186.12852478027344" class="er relationshipLabelBox"/><text style="text-anchor: middle; dominant-baseline: middle; font-size: 12px;" y="205.61622619628906" x="212.97813415527344" id="rel1" class="er relationshipLabel">enum:age</text><rect height="14" width="101.40625" y="229.29949951171875" x="272.86968994140625" class="er relationshipLabelBox"/><text style="text-anchor: middle; dominant-baseline: middle; font-size: 12px;" y="236.29949951171875" x="323.57281494140625" id="rel2" class="er relationshipLabel">enum:energy_level</text><rect height="14" width="55.017578125" y="270" x="478.4842224121094" class="er relationshipLabelBox"/><text style="text-anchor: middle; dominant-baseline: middle; font-size: 12px;" y="277" x="505.9930114746094" id="rel3" class="er relationshipLabel">enum:size</text><rect height="14" width="65.390625" y="219.26124572753906" x="616.446533203125" class="er relationshipLabelBox"/><text style="text-anchor: middle; dominant-baseline: middle; font-size: 12px;" y="226.26124572753906" x="649.141845703125" id="rel4" class="er relationshipLabel">organization</text><rect height="14" width="24.015625" y="196.4104766845703" x="691.0037231445312" class="er relationshipLabelBox"/><text style="text-anchor: middle; dominant-baseline: middle; font-size: 12px;" y="203.4104766845703" x="703.0115356445312" id="rel5" class="er relationshipLabel">Pets</text></svg>